<mxfile host="app.diagrams.net" modified="2023-12-14T20:27:23.029Z" agent="Mozilla/5.0 (Macintosh; Intel Mac OS X 10.15; rv:120.0) Gecko/20100101 Firefox/120.0" etag="njUM2-x_pjlbLhqT9K2q" version="22.1.7" type="github">
  <diagram name="Page-1" id="gIcqDawgdKmmRohHID6d">
    <mxGraphModel dx="836" dy="440" grid="1" gridSize="10" guides="1" tooltips="1" connect="1" arrows="1" fold="1" page="1" pageScale="1" pageWidth="1100" pageHeight="850" math="0" shadow="0">
      <root>
        <mxCell id="0" />
        <mxCell id="1" parent="0" />
        <mxCell id="DrY8CRywldtrE4Bw_a_d-1" value="&lt;div&gt;Health&lt;/div&gt;&lt;div&gt;Management&lt;/div&gt;&lt;div&gt;System&lt;br&gt;&lt;/div&gt;" style="ellipse;whiteSpace=wrap;html=1;aspect=fixed;" vertex="1" parent="1">
          <mxGeometry x="370" y="190" width="80" height="80" as="geometry" />
        </mxCell>
        <mxCell id="DrY8CRywldtrE4Bw_a_d-2" value="Frontend UI" style="rounded=0;whiteSpace=wrap;html=1;" vertex="1" parent="1">
          <mxGeometry x="80" y="200" width="120" height="60" as="geometry" />
        </mxCell>
        <mxCell id="DrY8CRywldtrE4Bw_a_d-3" value="Patient Management System" style="rounded=0;whiteSpace=wrap;html=1;" vertex="1" parent="1">
          <mxGeometry x="624.67" y="200" width="120" height="60" as="geometry" />
        </mxCell>
        <mxCell id="DrY8CRywldtrE4Bw_a_d-4" value="" style="endArrow=classic;html=1;rounded=0;exitX=1;exitY=0.25;exitDx=0;exitDy=0;entryX=0.025;entryY=0.3;entryDx=0;entryDy=0;entryPerimeter=0;" edge="1" parent="1" source="DrY8CRywldtrE4Bw_a_d-2" target="DrY8CRywldtrE4Bw_a_d-1">
          <mxGeometry width="50" height="50" relative="1" as="geometry">
            <mxPoint x="390" y="250" as="sourcePoint" />
            <mxPoint x="440" y="200" as="targetPoint" />
          </mxGeometry>
        </mxCell>
        <mxCell id="DrY8CRywldtrE4Bw_a_d-10" value="Triage Request" style="edgeLabel;html=1;align=center;verticalAlign=middle;resizable=0;points=[];" vertex="1" connectable="0" parent="DrY8CRywldtrE4Bw_a_d-4">
          <mxGeometry x="0.051" relative="1" as="geometry">
            <mxPoint x="-7" as="offset" />
          </mxGeometry>
        </mxCell>
        <mxCell id="DrY8CRywldtrE4Bw_a_d-5" value="" style="endArrow=classic;html=1;rounded=0;entryX=1;entryY=0.75;entryDx=0;entryDy=0;exitX=0.037;exitY=0.678;exitDx=0;exitDy=0;exitPerimeter=0;" edge="1" parent="1" source="DrY8CRywldtrE4Bw_a_d-1" target="DrY8CRywldtrE4Bw_a_d-2">
          <mxGeometry width="50" height="50" relative="1" as="geometry">
            <mxPoint x="340" y="340" as="sourcePoint" />
            <mxPoint x="440" y="200" as="targetPoint" />
          </mxGeometry>
        </mxCell>
        <mxCell id="DrY8CRywldtrE4Bw_a_d-11" value="&lt;div&gt;ER Status&lt;/div&gt;&lt;div&gt;Health Worker Info&lt;br&gt;&lt;/div&gt;" style="edgeLabel;html=1;align=center;verticalAlign=middle;resizable=0;points=[];" vertex="1" connectable="0" parent="DrY8CRywldtrE4Bw_a_d-5">
          <mxGeometry x="-0.1266" relative="1" as="geometry">
            <mxPoint as="offset" />
          </mxGeometry>
        </mxCell>
        <mxCell id="DrY8CRywldtrE4Bw_a_d-6" value="" style="endArrow=classic;html=1;rounded=0;exitX=1;exitY=0.25;exitDx=0;exitDy=0;entryX=0;entryY=0.25;entryDx=0;entryDy=0;" edge="1" parent="1" target="DrY8CRywldtrE4Bw_a_d-3">
          <mxGeometry width="50" height="50" relative="1" as="geometry">
            <mxPoint x="447" y="215.5" as="sourcePoint" />
            <mxPoint x="549" y="214.5" as="targetPoint" />
          </mxGeometry>
        </mxCell>
        <mxCell id="DrY8CRywldtrE4Bw_a_d-9" value="Triage Record" style="edgeLabel;html=1;align=center;verticalAlign=middle;resizable=0;points=[];" vertex="1" connectable="0" parent="DrY8CRywldtrE4Bw_a_d-6">
          <mxGeometry x="0.0214" y="1" relative="1" as="geometry">
            <mxPoint x="-5" as="offset" />
          </mxGeometry>
        </mxCell>
        <mxCell id="DrY8CRywldtrE4Bw_a_d-7" value="" style="endArrow=classic;html=1;rounded=0;entryX=1;entryY=0.75;entryDx=0;entryDy=0;exitX=0;exitY=0.75;exitDx=0;exitDy=0;" edge="1" parent="1" source="DrY8CRywldtrE4Bw_a_d-3">
          <mxGeometry width="50" height="50" relative="1" as="geometry">
            <mxPoint x="550" y="244.5" as="sourcePoint" />
            <mxPoint x="447" y="245.5" as="targetPoint" />
          </mxGeometry>
        </mxCell>
        <mxCell id="DrY8CRywldtrE4Bw_a_d-8" value="Patient Info" style="edgeLabel;html=1;align=center;verticalAlign=middle;resizable=0;points=[];" vertex="1" connectable="0" parent="DrY8CRywldtrE4Bw_a_d-7">
          <mxGeometry x="0.0408" y="1" relative="1" as="geometry">
            <mxPoint x="2" as="offset" />
          </mxGeometry>
        </mxCell>
      </root>
    </mxGraphModel>
  </diagram>
</mxfile>
